<?xml version="1.0" standalone="no"?>
<svg xmlns:xlink="http://www.w3.org/1999/xlink" id="wave" style="transform:rotate(0deg); transition: 0.3s" viewBox="0 0 1440 490" version="1.1" xmlns="http://www.w3.org/2000/svg"><defs><linearGradient id="sw-gradient-0" x1="0" x2="0" y1="1" y2="0"><stop stop-color="rgba(71, 71, 149, 1)" offset="0%"/><stop stop-color="rgba(71, 149, 148, 1)" offset="100%"/></linearGradient></defs><path style="transform:translate(0, 0px); opacity:1" fill="url(#sw-gradient-0)" d="M0,245L48,212.3C96,180,192,114,288,130.7C384,147,480,245,576,245C672,245,768,147,864,122.5C960,98,1056,147,1152,163.3C1248,180,1344,163,1440,147C1536,131,1632,114,1728,114.3C1824,114,1920,131,2016,138.8C2112,147,2208,147,2304,130.7C2400,114,2496,82,2592,81.7C2688,82,2784,114,2880,122.5C2976,131,3072,114,3168,98C3264,82,3360,65,3456,98C3552,131,3648,212,3744,220.5C3840,229,3936,163,4032,155.2C4128,147,4224,196,4320,196C4416,196,4512,147,4608,147C4704,147,4800,196,4896,212.3C4992,229,5088,212,5184,171.5C5280,131,5376,65,5472,106.2C5568,147,5664,294,5760,343C5856,392,5952,343,6048,285.8C6144,229,6240,163,6336,122.5C6432,82,6528,65,6624,89.8C6720,114,6816,180,6864,212.3L6912,245L6912,490L6864,490C6816,490,6720,490,6624,490C6528,490,6432,490,6336,490C6240,490,6144,490,6048,490C5952,490,5856,490,5760,490C5664,490,5568,490,5472,490C5376,490,5280,490,5184,490C5088,490,4992,490,4896,490C4800,490,4704,490,4608,490C4512,490,4416,490,4320,490C4224,490,4128,490,4032,490C3936,490,3840,490,3744,490C3648,490,3552,490,3456,490C3360,490,3264,490,3168,490C3072,490,2976,490,2880,490C2784,490,2688,490,2592,490C2496,490,2400,490,2304,490C2208,490,2112,490,2016,490C1920,490,1824,490,1728,490C1632,490,1536,490,1440,490C1344,490,1248,490,1152,490C1056,490,960,490,864,490C768,490,672,490,576,490C480,490,384,490,288,490C192,490,96,490,48,490L0,490Z"/><defs><linearGradient id="sw-gradient-1" x1="0" x2="0" y1="1" y2="0"><stop stop-color="rgba(71, 71, 149, 1)" offset="0%"/><stop stop-color="rgba(71, 149, 148, 1)" offset="100%"/></linearGradient></defs><path style="transform:translate(0, 50px); opacity:0.9" fill="url(#sw-gradient-1)" d="M0,343L48,359.3C96,376,192,408,288,383.8C384,359,480,278,576,261.3C672,245,768,294,864,334.8C960,376,1056,408,1152,383.8C1248,359,1344,278,1440,269.5C1536,261,1632,327,1728,302.2C1824,278,1920,163,2016,171.5C2112,180,2208,310,2304,326.7C2400,343,2496,245,2592,187.8C2688,131,2784,114,2880,89.8C2976,65,3072,33,3168,24.5C3264,16,3360,33,3456,73.5C3552,114,3648,180,3744,228.7C3840,278,3936,310,4032,294C4128,278,4224,212,4320,212.3C4416,212,4512,278,4608,285.8C4704,294,4800,245,4896,220.5C4992,196,5088,196,5184,179.7C5280,163,5376,131,5472,163.3C5568,196,5664,294,5760,302.2C5856,310,5952,229,6048,204.2C6144,180,6240,212,6336,196C6432,180,6528,114,6624,130.7C6720,147,6816,245,6864,294L6912,343L6912,490L6864,490C6816,490,6720,490,6624,490C6528,490,6432,490,6336,490C6240,490,6144,490,6048,490C5952,490,5856,490,5760,490C5664,490,5568,490,5472,490C5376,490,5280,490,5184,490C5088,490,4992,490,4896,490C4800,490,4704,490,4608,490C4512,490,4416,490,4320,490C4224,490,4128,490,4032,490C3936,490,3840,490,3744,490C3648,490,3552,490,3456,490C3360,490,3264,490,3168,490C3072,490,2976,490,2880,490C2784,490,2688,490,2592,490C2496,490,2400,490,2304,490C2208,490,2112,490,2016,490C1920,490,1824,490,1728,490C1632,490,1536,490,1440,490C1344,490,1248,490,1152,490C1056,490,960,490,864,490C768,490,672,490,576,490C480,490,384,490,288,490C192,490,96,490,48,490L0,490Z"/><defs><linearGradient id="sw-gradient-2" x1="0" x2="0" y1="1" y2="0"><stop stop-color="rgba(71, 71, 149, 1)" offset="0%"/><stop stop-color="rgba(71, 149, 148, 1)" offset="100%"/></linearGradient></defs><path style="transform:translate(0, 100px); opacity:0.8" fill="url(#sw-gradient-2)" d="M0,49L48,98C96,147,192,245,288,277.7C384,310,480,278,576,220.5C672,163,768,82,864,98C960,114,1056,229,1152,285.8C1248,343,1344,343,1440,302.2C1536,261,1632,180,1728,130.7C1824,82,1920,65,2016,106.2C2112,147,2208,245,2304,294C2400,343,2496,343,2592,334.8C2688,327,2784,310,2880,253.2C2976,196,3072,98,3168,106.2C3264,114,3360,229,3456,285.8C3552,343,3648,343,3744,334.8C3840,327,3936,310,4032,294C4128,278,4224,261,4320,277.7C4416,294,4512,343,4608,351.2C4704,359,4800,327,4896,302.2C4992,278,5088,261,5184,261.3C5280,261,5376,278,5472,277.7C5568,278,5664,261,5760,228.7C5856,196,5952,147,6048,147C6144,147,6240,196,6336,187.8C6432,180,6528,114,6624,73.5C6720,33,6816,16,6864,8.2L6912,0L6912,490L6864,490C6816,490,6720,490,6624,490C6528,490,6432,490,6336,490C6240,490,6144,490,6048,490C5952,490,5856,490,5760,490C5664,490,5568,490,5472,490C5376,490,5280,490,5184,490C5088,490,4992,490,4896,490C4800,490,4704,490,4608,490C4512,490,4416,490,4320,490C4224,490,4128,490,4032,490C3936,490,3840,490,3744,490C3648,490,3552,490,3456,490C3360,490,3264,490,3168,490C3072,490,2976,490,2880,490C2784,490,2688,490,2592,490C2496,490,2400,490,2304,490C2208,490,2112,490,2016,490C1920,490,1824,490,1728,490C1632,490,1536,490,1440,490C1344,490,1248,490,1152,490C1056,490,960,490,864,490C768,490,672,490,576,490C480,490,384,490,288,490C192,490,96,490,48,490L0,490Z"/></svg>